<svg xmlns="http://www.w3.org/2000/svg" xmlns:xlink="http://www.w3.org/1999/xlink" fill="none" version="1.1" width="36" height="36" viewBox="0 0 36 36"><defs><clipPath id="master_svg0_51_6175"><rect x="10" y="8" width="20" height="20" rx="0"/></clipPath></defs><g><g><rect x="0" y="0" width="36" height="36" rx="18" fill="#FFFFFF" fill-opacity="0.20000000298023224"/></g><g clip-path="url(#master_svg0_51_6175)"><g><rect x="10" y="8" width="20" height="20" rx="0" fill="#FFFFFF" fill-opacity="0.009999999776482582"/></g><g><path d="M12.5,26.5L20,26.5Q20.098489999999998,26.5,20.19509,26.480800000000002Q20.29169,26.4616,20.38268,26.4239Q20.47368,26.386200000000002,20.55557,26.3315Q20.63746,26.276699999999998,20.70711,26.2071Q20.77675,26.1375,20.83147,26.0556Q20.88619,25.9737,20.92388,25.8827Q20.961570000000002,25.7917,20.98078,25.6951Q21,25.5985,21,25.5Q21,25.4015,20.98078,25.3049Q20.961570000000002,25.2083,20.92388,25.1173Q20.88619,25.0263,20.83147,24.9444Q20.77675,24.8625,20.70711,24.7929Q20.63746,24.7232,20.55557,24.6685Q20.47368,24.613799999999998,20.38268,24.5761Q20.29169,24.5384,20.19509,24.519199999999998Q20.098489999999998,24.5,20,24.5L13.5,24.5L13.5,11.5L19.99654,11.5Q20.09503,11.5,20.19163,11.480785000000001Q20.28823,11.46157,20.37922,11.423879Q20.47022,11.386188,20.55211,11.33147Q20.634,11.276751,20.70365,11.207107Q20.77329,11.137463,20.82801,11.05557Q20.882730000000002,10.973678,20.92042,10.882683Q20.958109999999998,10.791689,20.97732,10.69509Q20.99654,10.5984914,20.99654,10.5Q20.99654,10.4015086,20.97732,10.30491Q20.958109999999998,10.208311,20.92042,10.117317Q20.882730000000002,10.026322,20.82801,9.94443Q20.77329,9.862537,20.70365,9.792893Q20.634,9.723249,20.55211,9.66853Q20.47022,9.613812,20.37922,9.576121Q20.28823,9.53843,20.19163,9.519214999999999Q20.09503,9.5,19.99654,9.5L12.5,9.5Q12.4015086,9.5,12.30491,9.519214999999999Q12.208311,9.53843,12.117317,9.576121Q12.026322,9.613812,11.94443,9.66853Q11.862537,9.723249,11.792893,9.792893Q11.723249,9.862537,11.66853,9.94443Q11.613812,10.026322,11.576121,10.117317Q11.53843,10.208311,11.519214999999999,10.30491Q11.5,10.4015086,11.5,10.5L11.5,25.5Q11.5,25.5985,11.519214999999999,25.6951Q11.53843,25.7917,11.576121,25.8827Q11.613812,25.9737,11.66853,26.0556Q11.723249,26.1375,11.792893,26.2071Q11.862537,26.276699999999998,11.94443,26.3315Q12.026322,26.386200000000002,12.117317,26.4239Q12.208311,26.4616,12.30491,26.480800000000002Q12.4015086,26.5,12.5,26.5Z" fill-rule="evenodd" fill="#F8F8F9" fill-opacity="1"/></g><g><path d="M24.457226,13.543012000000001L24.457107,13.542893Q24.316455,13.402241,24.132683,13.32612Q23.948912,13.25,23.75,13.25Q23.551088,13.25,23.367317,13.32612Q23.183545,13.402241,23.042893,13.542893Q22.902241,13.683545,22.82612,13.867317Q22.75,14.051088,22.75,14.25Q22.75,14.448912,22.82612,14.632683Q22.902241,14.816455,23.042893,14.957107L26.08579,18L23.043268,21.04252L23.042893,21.04289Q22.902241,21.18355,22.826121,21.36732Q22.75,21.551090000000002,22.75,21.75Q22.75,21.948909999999998,22.82612,22.13268Q22.902241,22.31645,23.042893,22.45711Q23.183545,22.59776,23.367317,22.67388Q23.551088,22.75,23.75,22.75Q23.948912,22.75,24.132683,22.67388Q24.316455,22.59776,24.457107,22.45711L24.457482,22.45673L28.20711,18.70711Q28.34776,18.56645,28.42388,18.38268Q28.5,18.19891,28.5,18Q28.5,17.80109,28.42388,17.61732Q28.34776,17.43355,28.20711,17.29289L24.457226,13.543012000000001Z" fill-rule="evenodd" fill="#F8F8F9" fill-opacity="1"/></g><g><path d="M16.666671752929688,18.99658203125L27.49997175292969,18.99658203125Q27.59847175292969,18.99658203125,27.695071752929685,18.97736703125Q27.791671752929688,18.958152031250002,27.88267175292969,18.92046103125Q27.97367175292969,18.88277003125,28.055571752929687,18.82805203125Q28.137471752929688,18.77333303125,28.207071752929686,18.70368903125Q28.276771752929687,18.63404503125,28.331471752929687,18.55215203125Q28.386171752929688,18.47026003125,28.423871752929685,18.37926503125Q28.461571752929686,18.28827103125,28.480771752929687,18.19167203125Q28.49997175292969,18.09507343125,28.49997175292969,17.99658203125Q28.49997175292969,17.89809063125,28.480771752929687,17.80149203125Q28.461571752929686,17.70489303125,28.423871752929685,17.61389903125Q28.386171752929688,17.52290403125,28.331471752929687,17.44101203125Q28.276771752929687,17.35911903125,28.207071752929686,17.28947503125Q28.137471752929688,17.21983103125,28.055571752929687,17.16511203125Q27.97367175292969,17.11039403125,27.88267175292969,17.07270303125Q27.791671752929688,17.035012031249998,27.695071752929685,17.01579703125Q27.59847175292969,16.99658203125,27.49997175292969,16.99658203125L16.666671752929688,16.99658203125Q16.568180352929687,16.99658203125,16.471581752929687,17.01579703125Q16.374982752929686,17.035012031249998,16.283988752929687,17.07270303125Q16.192993752929688,17.11039403125,16.111101752929688,17.16511203125Q16.029208752929687,17.21983103125,15.959564752929687,17.28947503125Q15.889920752929687,17.35911903125,15.835201752929688,17.44101203125Q15.780483752929687,17.52290403125,15.742792752929688,17.61389903125Q15.705101752929687,17.70489303125,15.685886752929687,17.80149203125Q15.666671752929688,17.89809063125,15.666671752929688,17.99658203125Q15.666671752929688,18.09507343125,15.685886752929687,18.19167203125Q15.705101752929687,18.28827103125,15.742792752929688,18.37926503125Q15.780483752929687,18.47026003125,15.835201752929688,18.55215203125Q15.889920752929687,18.63404503125,15.959564752929687,18.70368903125Q16.029208752929687,18.77333303125,16.111101752929688,18.82805203125Q16.192993752929688,18.88277003125,16.283988752929687,18.92046103125Q16.374982752929686,18.958152031250002,16.471581752929687,18.97736703125Q16.568180352929687,18.99658203125,16.666671752929688,18.99658203125Z" fill-rule="evenodd" fill="#F8F8F9" fill-opacity="1"/></g></g></g></svg>