<svg xmlns="http://www.w3.org/2000/svg" xmlns:xlink="http://www.w3.org/1999/xlink" fill="none" version="1.1" width="36" height="36" viewBox="0 0 36 36"><defs><clipPath id="master_svg0_51_6182"><rect x="8" y="8" width="20" height="20" rx="0"/></clipPath></defs><g><g><rect x="0" y="0" width="36" height="36" rx="18" fill="#FFFFFF" fill-opacity="0.20000000298023224"/></g><g clip-path="url(#master_svg0_51_6182)"><g><path d="M21.75,15.25L25.5,15.25Q25.598489999999998,15.25,25.69509,15.23078Q25.79169,15.21157,25.88268,15.17388Q25.97368,15.13619,26.05557,15.08147Q26.13746,15.02675,26.20711,14.95711Q26.27675,14.88746,26.33147,14.80557Q26.38619,14.72368,26.42388,14.63268Q26.461570000000002,14.54169,26.48078,14.44509Q26.5,14.34849,26.5,14.25Q26.5,14.15151,26.48078,14.05491Q26.461570000000002,13.95831,26.42388,13.86732Q26.38619,13.77632,26.33147,13.69443Q26.27675,13.61254,26.20711,13.54289Q26.13746,13.47325,26.05557,13.41853Q25.97368,13.36381,25.88268,13.32612Q25.79169,13.28843,25.69509,13.269210000000001Q25.598489999999998,13.25,25.5,13.25L22.75,13.25L22.75,10.5Q22.75,10.4015086,22.730785,10.30491Q22.711570000000002,10.208311,22.673879,10.117317Q22.636188,10.026322,22.58147,9.94443Q22.526751,9.862537,22.457107,9.792893Q22.387463,9.723249,22.30557,9.66853Q22.223678,9.613812,22.132683,9.576121Q22.041689,9.53843,21.94509,9.519214999999999Q21.8484914,9.5,21.75,9.5Q21.6515086,9.5,21.55491,9.519214999999999Q21.458311,9.53843,21.367317,9.576121Q21.276322,9.613812,21.19443,9.66853Q21.112537,9.723249,21.042893,9.792893Q20.973249,9.862537,20.91853,9.94443Q20.863812,10.026322,20.826121,10.117317Q20.788429999999998,10.208311,20.769215,10.30491Q20.75,10.4015086,20.75,10.5L20.75,14.25Q20.75,14.34849,20.769215,14.44509Q20.788429999999998,14.54169,20.826121,14.63268Q20.863812,14.72368,20.91853,14.80557Q20.973249,14.88746,21.042893,14.95711Q21.112537,15.02675,21.19443,15.08147Q21.276322,15.13619,21.367317,15.17388Q21.458311,15.21157,21.55491,15.23078Q21.6515086,15.25,21.75,15.25Z" fill-rule="evenodd" fill="#FFFFFF" fill-opacity="1"/></g><g><path d="M13.25,13.25L10.5,13.25Q10.4015086,13.25,10.30491,13.269210000000001Q10.208311,13.28843,10.117317,13.32612Q10.026322,13.36381,9.94443,13.41853Q9.862537,13.47325,9.792893,13.54289Q9.723249,13.61254,9.66853,13.69443Q9.613812,13.77632,9.576121,13.86732Q9.53843,13.95831,9.519214999999999,14.05491Q9.5,14.15151,9.5,14.25Q9.5,14.34849,9.519214999999999,14.44509Q9.53843,14.54169,9.576121,14.63268Q9.613812,14.72368,9.66853,14.80557Q9.723249,14.88746,9.792893,14.95711Q9.862537,15.02675,9.94443,15.08147Q10.026322,15.13619,10.117317,15.17388Q10.208311,15.21157,10.30491,15.23078Q10.4015086,15.25,10.5,15.25L14.25,15.25Q14.34849,15.25,14.44509,15.23078Q14.54169,15.21157,14.63268,15.17388Q14.72368,15.13619,14.80557,15.08147Q14.88746,15.02675,14.95711,14.95711Q15.02675,14.88746,15.08147,14.80557Q15.13619,14.72368,15.17388,14.63268Q15.21157,14.54169,15.23078,14.44509Q15.25,14.34849,15.25,14.25L15.25,10.5Q15.25,10.4015086,15.23078,10.30491Q15.21157,10.208311,15.17388,10.117317Q15.13619,10.026322,15.08147,9.94443Q15.02675,9.862537,14.95711,9.792893Q14.88746,9.723249,14.80557,9.66853Q14.72368,9.613812,14.63268,9.576121Q14.54169,9.53843,14.44509,9.519214999999999Q14.34849,9.5,14.25,9.5Q14.15151,9.5,14.05491,9.519214999999999Q13.95831,9.53843,13.86732,9.576121Q13.77632,9.613812,13.69443,9.66853Q13.61254,9.723249,13.54289,9.792893Q13.47325,9.862537,13.41853,9.94443Q13.36381,10.026322,13.32612,10.117317Q13.28843,10.208311,13.269210000000001,10.30491Q13.25,10.4015086,13.25,10.5L13.25,13.25Z" fill-rule="evenodd" fill="#FFFFFF" fill-opacity="1"/></g><g><path d="M14.25,20.75L10.5,20.75Q10.4015086,20.75,10.30491,20.769215Q10.208311,20.788429999999998,10.117317,20.826121Q10.026322,20.863812,9.94443,20.91853Q9.862537,20.973249,9.792893,21.042893Q9.723249,21.112537,9.66853,21.19443Q9.613812,21.276322,9.576121,21.367317Q9.53843,21.458311,9.519214999999999,21.55491Q9.5,21.6515086,9.5,21.75Q9.5,21.8484914,9.519214999999999,21.94509Q9.53843,22.041689,9.576121,22.132683Q9.613812,22.223678,9.66853,22.30557Q9.723249,22.387463,9.792893,22.457107Q9.862537,22.526751,9.94443,22.58147Q10.026322,22.636188,10.117317,22.673879Q10.208311,22.711570000000002,10.30491,22.730785Q10.4015086,22.75,10.5,22.75L13.25,22.75L13.25,25.5Q13.25,25.598489999999998,13.269210000000001,25.69509Q13.28843,25.79169,13.32612,25.88268Q13.36381,25.97368,13.41853,26.05557Q13.47325,26.13746,13.54289,26.20711Q13.61254,26.27675,13.69443,26.33147Q13.77632,26.38619,13.86732,26.42388Q13.95831,26.461570000000002,14.05491,26.48078Q14.15151,26.5,14.25,26.5Q14.34849,26.5,14.44509,26.48078Q14.54169,26.461570000000002,14.63268,26.42388Q14.72368,26.38619,14.80557,26.33147Q14.88746,26.27675,14.95711,26.20711Q15.02675,26.13746,15.08147,26.05557Q15.13619,25.97368,15.17388,25.88268Q15.21157,25.79169,15.23078,25.69509Q15.25,25.598489999999998,15.25,25.5L15.25,21.75Q15.25,21.6515086,15.23078,21.55491Q15.21157,21.458311,15.17388,21.367317Q15.13619,21.276322,15.08147,21.19443Q15.02675,21.112537,14.95711,21.042893Q14.88746,20.973249,14.80557,20.91853Q14.72368,20.863812,14.63268,20.826121Q14.54169,20.788429999999998,14.44509,20.769215Q14.34849,20.75,14.25,20.75Z" fill-rule="evenodd" fill="#FFFFFF" fill-opacity="1"/></g><g><path d="M22.75,22.75L25.45813,22.75Q25.55662,22.75,25.65322,22.730785Q25.74981,22.711570000000002,25.84081,22.673879Q25.9318,22.636188,26.0137,22.58147Q26.09559,22.526751,26.16523,22.457107Q26.23488,22.387463,26.28959,22.30557Q26.34431,22.223678,26.381999999999998,22.132683Q26.4197,22.041689,26.43891,21.94509Q26.45813,21.8484914,26.45813,21.75Q26.45813,21.6515086,26.43891,21.55491Q26.4197,21.458311,26.381999999999998,21.367317Q26.34431,21.276322,26.28959,21.19443Q26.23488,21.112537,26.16523,21.042893Q26.09559,20.973249,26.0137,20.91853Q25.9318,20.863812,25.84081,20.826121Q25.74981,20.788429999999998,25.65322,20.769215Q25.55662,20.75,25.45813,20.75L21.75,20.75Q21.6515086,20.75,21.55491,20.769215Q21.458311,20.788429999999998,21.367317,20.826121Q21.276322,20.863812,21.19443,20.91853Q21.112537,20.973249,21.042893,21.042893Q20.973249,21.112537,20.91853,21.19443Q20.863812,21.276322,20.826121,21.367317Q20.788429999999998,21.458311,20.769215,21.55491Q20.75,21.6515086,20.75,21.75L20.75,25.5Q20.75,25.598489999999998,20.769215,25.69509Q20.788429999999998,25.79169,20.826121,25.88268Q20.863812,25.97368,20.91853,26.05557Q20.973249,26.13746,21.042893,26.20711Q21.112537,26.27675,21.19443,26.33147Q21.276322,26.38619,21.367317,26.42388Q21.458311,26.461570000000002,21.55491,26.48078Q21.6515086,26.5,21.75,26.5Q21.8484914,26.5,21.94509,26.48078Q22.041689,26.461570000000002,22.132683,26.42388Q22.223678,26.38619,22.30557,26.33147Q22.387463,26.27675,22.457107,26.20711Q22.526751,26.13746,22.58147,26.05557Q22.636188,25.97368,22.673879,25.88268Q22.711570000000002,25.79169,22.730785,25.69509Q22.75,25.598489999999998,22.75,25.5L22.75,22.75Z" fill-rule="evenodd" fill="#FFFFFF" fill-opacity="1"/></g></g></g></svg>