<svg xmlns="http://www.w3.org/2000/svg" xmlns:xlink="http://www.w3.org/1999/xlink" fill="none" version="1.1" width="36" height="36" viewBox="0 0 36 36"><defs><clipPath id="master_svg0_51_6169"><rect x="8" y="8" width="20" height="20" rx="0"/></clipPath></defs><g><g><rect x="0" y="0" width="36" height="36" rx="18" fill="#FFFFFF" fill-opacity="0.20000000298023224"/></g><g clip-path="url(#master_svg0_51_6169)"><g></g><g><path d="M22.454535876464846,10.46527909375L22.454235876464843,10.46509409375Q22.223735876464843,10.33349609375,21.958335876464844,10.33349609375Q21.946935876464842,10.33349609375,21.935535876464844,10.33375509375Q21.813035876464845,10.33654609375,21.694935876464843,10.36881609375Q21.503035876464843,10.42121509375,21.345835876464843,10.54305709375Q21.188535876464844,10.66489909375,21.089935876464843,10.83763509375Q20.958335876464844,11.06810309375,20.958335876464844,11.33349609375Q20.958335876464844,11.36360529375,20.960135876464843,11.39366019375Q20.967635876464843,11.51804509375,21.005435876464844,11.63678609375Q21.04323587646484,11.75552609375,21.109035876464844,11.86136109375Q21.174835876464844,11.96719609375,21.264535876464844,12.05365209375Q21.35423587646484,12.14010809375,21.462435876464845,12.20189809375Q21.822035876464845,12.40718609375,22.154435876464845,12.65365609375Q22.721935876464844,13.07440609375,23.192035876464843,13.60016609375Q24.916635876464845,15.52888609375,24.916635876464845,18.10245609375Q24.916635876464845,20.92124609375,22.895435876464845,22.916396093750002Q20.868735876464843,24.91679609375,17.999995876464844,24.91679609375Q15.131225876464843,24.91679609375,13.104565876464843,22.916396093750002Q11.083335876464844,20.92123609375,11.083335876464844,18.10245609375Q11.083335876464844,15.52886609375,12.807955876464844,13.60013609375Q13.278085876464843,13.07440609375,13.845565876464844,12.65368609375Q14.178015876464844,12.40718609375,14.537525876464844,12.20189809375Q14.652385876464844,12.13631509375,14.746235876464844,12.04312909375Q14.840095876464844,11.94994309375,14.906495876464843,11.83556109375Q14.972905876464843,11.721179093749999,15.007285876464843,11.59346709375Q15.041665876464844,11.46575509375,15.041665876464844,11.3334961560905Q15.041665876464844,11.31268049375,15.040805876464844,11.29188289375Q15.030685876464844,11.04886009375,14.910075876464845,10.83763509375Q14.844485876464844,10.72278109375,14.751305876464844,10.62892509375Q14.658115876464844,10.53506909375,14.543735876464844,10.46866609375Q14.429355876464843,10.40226309375,14.301635876464843,10.36788009375Q14.173925876464843,10.33349609375,14.041665876464844,10.33349609375Q14.020855876464843,10.33349609375,14.000055876464844,10.33436209375Q13.757035876464844,10.34448409375,13.545805876464843,10.46509409375Q13.082655876464845,10.72955609375,12.654435876464843,11.04706709375Q11.923165876464843,11.58922709375,11.317055876464844,12.26701709375Q9.083335876464844,14.76509609375,9.083336876464843,18.10245609375Q9.083336876464843,19.89750609375,9.786299876464843,21.53799609375Q10.464398876464843,23.12049609375,11.699585876464845,24.33969609375Q12.933405876464844,25.55759609375,14.533205876464844,26.22549609375Q16.188995876464844,26.91679609375,17.999995876464844,26.91679609375Q19.811005876464844,26.91679609375,21.46683587646484,26.22549609375Q23.066635876464844,25.55759609375,24.300435876464846,24.33969609375Q25.535635876464845,23.12049609375,26.213735876464845,21.53799609375Q26.916635876464845,19.89751609375,26.916635876464845,18.10245609375Q26.916635876464845,14.76511609375,24.682935876464846,12.26699009375Q24.07683587646484,11.58922809375,23.345635876464844,11.047099093749999Q22.917935876464846,10.73002409375,22.455535876464843,10.46587009375L22.454535876464846,10.46527909375Z" fill-rule="evenodd" fill="#FFFFFF" fill-opacity="1"/></g><g><path d="M17,9.66650390625L17,17.99983390625Q17,18.098323906250002,17.019215,18.19492390625Q17.038429999999998,18.29152390625,17.076121,18.38252390625Q17.113812,18.47351390625,17.16853,18.55540390625Q17.223249,18.63729390625,17.292893,18.70694390625Q17.362537,18.77658390625,17.44443,18.83130390625Q17.526322,18.88602390625,17.617317,18.92371390625Q17.708311,18.96140390625,17.80491,18.980623906250003Q17.9015086,18.99983390625,18,18.99983390625Q18.0984914,18.99983390625,18.19509,18.980623906250003Q18.291689,18.96140390625,18.382683,18.92371390625Q18.473678,18.88602390625,18.55557,18.83130390625Q18.637463,18.77658390625,18.707107,18.70694390625Q18.776751,18.63729390625,18.83147,18.55540390625Q18.886188,18.47351390625,18.923879,18.38251390625Q18.961570000000002,18.29152390625,18.980785,18.19492390625Q19,18.098323906250002,19,17.99983390625L19,9.66650390625Q19,9.56801250625,18.980785,9.47141390625Q18.961570000000002,9.37481490625,18.923879,9.28382090625Q18.886188,9.19282590625,18.83147,9.11093390625Q18.776751,9.02904090625,18.707107,8.95939690625Q18.637463,8.88975290625,18.55557,8.83503390625Q18.473678,8.78031590625,18.382683,8.74262490625Q18.291689,8.70493390625,18.19509,8.685718906249999Q18.0984914,8.66650390625,18,8.66650390625Q17.9015086,8.66650390625,17.80491,8.685718906249999Q17.708311,8.70493390625,17.617317,8.74262490625Q17.526322,8.78031590625,17.44443,8.83503390625Q17.362537,8.88975290625,17.292893,8.95939690625Q17.223249,9.02904090625,17.16853,9.11093390625Q17.113812,9.19282590625,17.076121,9.28382090625Q17.038429999999998,9.37481490625,17.019215,9.47141390625Q17,9.56801250625,17,9.66650390625Z" fill-rule="evenodd" fill="#FFFFFF" fill-opacity="1"/></g></g></g></svg>