<svg xmlns="http://www.w3.org/2000/svg" xmlns:xlink="http://www.w3.org/1999/xlink" fill="none" version="1.1" width="36" height="36" viewBox="0 0 36 36"><defs><clipPath id="master_svg0_51_6156"><rect x="8" y="8" width="20" height="20" rx="0"/></clipPath></defs><g><g><rect x="0" y="0" width="36" height="36" rx="18" fill="#FFFFFF" fill-opacity="0.20000000298023224"/></g><g clip-path="url(#master_svg0_51_6156)"><g></g><g><path d="M9.796473,11.210669L13.96314,15.335460000000001Q14.10357,15.47448,14.28632,15.54963Q14.46907,15.62479,14.66667,15.62479L14.67172,15.624780000000001Q14.87063,15.62377,15.05401,15.54673Q15.237400000000001,15.46968,15.37734,15.32832Q15.51635,15.18789,15.59151,15.00514Q15.66667,14.82239,15.66667,14.62479L15.66665,14.61974Q15.66565,14.42083,15.5886,14.237449999999999Q15.51155,14.05406,15.370190000000001,13.91412L15.36979,13.913730000000001L11.203527,9.789331Q11.063098,9.650314,10.880349,9.575157Q10.6976,9.5,10.49999999999999,9.5L10.49494971,9.500013Q10.29604,9.501017000000001,10.112656,9.578065Q9.929271,9.655112,9.789331,9.796473Q9.650314,9.936902,9.575157,10.119651Q9.5,10.3024,9.5,10.5L9.500013,10.50505029Q9.501017000000001,10.70396,9.578065,10.887344Q9.655112,11.070729,9.796473,11.210669Z" fill-rule="evenodd" fill="#FFFFFF" fill-opacity="1"/></g><g><path d="M11.203928,26.16855609375L15.370190000000001,22.04416509375Q15.51249,21.90330109375,15.58958,21.71851109375Q15.66667,21.53372109375,15.66667,21.333496332338Q15.66667,21.31013439375,15.66558,21.28679819375Q15.65691,21.10150809375,15.582370000000001,20.93165009375Q15.50783,20.76179309375,15.37734,20.62996909375Q15.23647,20.48767609375,15.051680000000001,20.41058609375Q14.86689,20.33349609375,14.66667,20.33349609375Q14.6433,20.33349609375,14.61997,20.33458709375Q14.43468,20.34324909375,14.26482,20.41778809375Q14.09496,20.49232809375,13.96314,20.62282709375L9.796473,24.74761609375Q9.655112,24.88755609375,9.578065,25.07094609375Q9.501017000000001,25.25432609375,9.500013,25.45323609375L9.5,25.45828609375Q9.5,25.47979609375,9.500925,25.50127609375Q9.508941,25.68755609375,9.583549,25.85843609375Q9.658157,26.02930609375,9.789331,26.161816093749998Q9.930195,26.30410609375,10.114985,26.38119609375Q10.299775,26.45828609375,10.5,26.45828609375Q10.5233616,26.45828609375,10.5466979,26.45719609375Q10.731988,26.44853609375,10.901846,26.37399609375Q11.071703,26.29945609375,11.203527,26.16895609375L11.203928,26.16855609375Z" fill-rule="evenodd" fill="#FFFFFF" fill-opacity="1"/></g><g><path d="M22.082470140625,20.62650809375L22.082351140625,20.62638909375Q21.941699140625,20.48573709375,21.757928140625,20.40961709375Q21.574156140625,20.33349609375,21.3752442104562,20.33349609375Q21.176332140625,20.33349609375,20.992561140625,20.40961609375Q20.808790140625,20.48573709375,20.668137140625,20.62638909375Q20.527485140625,20.76704109375,20.451364140625,20.95081309375Q20.375244140625,21.13458409375,20.375244140625,21.33349609375Q20.375244140625,21.53240809375,20.451364140625,21.71617909375Q20.527485140625,21.89995009375,20.668137140625,22.04060309375L20.668256140625,22.04072209375L24.792614140625,26.16507609375L24.792924140625,26.16539609375Q24.933584140625,26.30604609375,25.117354140625,26.38216609375Q25.301124140625,26.45828609375,25.500034140625,26.45828609375Q25.524064140625,26.45828609375,25.548074140625,26.45713609375Q25.734304140625,26.44817609375,25.904804140625,26.37270609375Q26.075304140625,26.29723609375,26.207144140625,26.16539609375Q26.347794140625,26.02474609375,26.423914140625,25.84097609375Q26.500034140625,25.65719609375,26.500034140625,25.45828609375Q26.500034140625,25.43239609375,26.498694140625,25.406546093750002Q26.489094140625,25.22130609375,26.413704140625,25.05182609375Q26.338304140625,24.88234609375,26.207144140625,24.75118609375L22.082470140625,20.62650809375Z" fill-rule="evenodd" fill="#FFFFFF" fill-opacity="1"/></g><g><path d="M24.751018247070313,9.792893L20.626221247070312,13.91768Q20.485569247070313,14.05834,20.409448247070312,14.24211Q20.333328247070312,14.42588,20.333328247070312,14.62479Q20.333328247070312,14.64882,20.334482247070312,14.672830000000001Q20.34343924707031,14.85907,20.418909247070314,15.02956Q20.494379247070313,15.20006,20.626221247070312,15.331900000000001Q20.76687324707031,15.47255,20.950645247070312,15.548670000000001Q21.134416247070313,15.62479,21.333328247070312,15.62479Q21.532240247070312,15.62479,21.716011247070313,15.548670000000001Q21.899783247070314,15.47255,22.040435247070313,15.331900000000001L26.16490824707031,11.207421L26.165228247070313,11.207107Q26.30587824707031,11.066455,26.381998247070314,10.882683Q26.458118247070313,10.698912,26.458118247070313,10.5000000174578Q26.458118247070313,10.301088,26.381998247070314,10.117317Q26.30587824707031,9.933545,26.165228247070313,9.792893Q26.024578247070313,9.652241,25.84079824707031,9.57612Q25.65702824707031,9.5,25.458118247070313,9.5Q25.259208247070312,9.5,25.075438247070313,9.57612Q24.891668247070314,9.652241,24.751018247070313,9.792893Z" fill-rule="evenodd" fill="#FFFFFF" fill-opacity="1"/></g><g><path d="M24.5,11.5L24.5,14.25Q24.5,14.34849,24.51921,14.44509Q24.538429999999998,14.54169,24.57612,14.63268Q24.61381,14.72368,24.66853,14.80557Q24.72325,14.88746,24.79289,14.95711Q24.86254,15.02675,24.94443,15.08147Q25.02632,15.13619,25.11732,15.17388Q25.20831,15.21157,25.30491,15.23078Q25.401510000000002,15.25,25.5,15.25Q25.598489999999998,15.25,25.69509,15.23078Q25.79169,15.21157,25.88268,15.17388Q25.97368,15.13619,26.05557,15.08147Q26.13746,15.02675,26.20711,14.95711Q26.27675,14.88746,26.33147,14.80557Q26.38619,14.72368,26.42388,14.63268Q26.461570000000002,14.54169,26.48078,14.44509Q26.5,14.34849,26.5,14.25L26.5,10.5Q26.5,10.4015086,26.48078,10.30491Q26.461570000000002,10.208311,26.42388,10.117317Q26.38619,10.026322,26.33147,9.94443Q26.27675,9.862537,26.20711,9.792893Q26.13746,9.723249,26.05557,9.66853Q25.97368,9.613812,25.88268,9.576121Q25.79169,9.53843,25.69509,9.519214999999999Q25.598489999999998,9.5,25.5,9.5L21.75,9.5Q21.6515086,9.5,21.55491,9.519214999999999Q21.458311,9.53843,21.367317,9.576121Q21.276322,9.613812,21.19443,9.66853Q21.112537,9.723249,21.042893,9.792893Q20.973249,9.862537,20.91853,9.94443Q20.863812,10.026322,20.826121,10.117317Q20.788429999999998,10.208311,20.769215,10.30491Q20.75,10.4015086,20.75,10.5Q20.75,10.5984914,20.769215,10.69509Q20.788429999999998,10.791689,20.826121,10.882683Q20.863812,10.973678,20.91853,11.05557Q20.973249,11.137463,21.042893,11.207107Q21.112537,11.276751,21.19443,11.33147Q21.276322,11.386188,21.367317,11.423879Q21.458311,11.46157,21.55491,11.480785000000001Q21.6515086,11.5,21.75,11.5L24.5,11.5Z" fill-rule="evenodd" fill="#FFFFFF" fill-opacity="1"/></g><g><path d="M24.5,24.5L21.75,24.5Q21.6515086,24.5,21.55491,24.51921Q21.458311,24.538429999999998,21.367317,24.57612Q21.276322,24.61381,21.19443,24.66853Q21.112537,24.72325,21.042893,24.79289Q20.973249,24.86254,20.91853,24.94443Q20.863812,25.02632,20.826121,25.11732Q20.788429999999998,25.20831,20.769215,25.30491Q20.75,25.401510000000002,20.75,25.5Q20.75,25.598489999999998,20.769215,25.69509Q20.788429999999998,25.79169,20.826121,25.88268Q20.863812,25.97368,20.91853,26.05557Q20.973249,26.13746,21.042893,26.20711Q21.112537,26.27675,21.19443,26.33147Q21.276322,26.38619,21.367317,26.42388Q21.458311,26.461570000000002,21.55491,26.48078Q21.6515086,26.5,21.75,26.5L25.5,26.5Q25.598489999999998,26.5,25.69509,26.48078Q25.79169,26.461570000000002,25.88268,26.42388Q25.97368,26.38619,26.05557,26.33147Q26.13746,26.27675,26.20711,26.20711Q26.27675,26.13746,26.33147,26.05557Q26.38619,25.97368,26.42388,25.88268Q26.461570000000002,25.79169,26.48078,25.69509Q26.5,25.598489999999998,26.5,25.5L26.5,21.75Q26.5,21.6515086,26.48078,21.55491Q26.461570000000002,21.458311,26.42388,21.367317Q26.38619,21.276322,26.33147,21.19443Q26.27675,21.112537,26.20711,21.042893Q26.13746,20.973249,26.05557,20.91853Q25.97368,20.863812,25.88268,20.826121Q25.79169,20.788429999999998,25.69509,20.769215Q25.598489999999998,20.75,25.5,20.75Q25.401510000000002,20.75,25.30491,20.769215Q25.20831,20.788429999999998,25.11732,20.826121Q25.02632,20.863812,24.94443,20.91853Q24.86254,20.973249,24.79289,21.042893Q24.72325,21.112537,24.66853,21.19443Q24.61381,21.276322,24.57612,21.367317Q24.538429999999998,21.458311,24.51921,21.55491Q24.5,21.6515086,24.5,21.75L24.5,24.5Z" fill-rule="evenodd" fill="#FFFFFF" fill-opacity="1"/></g><g><path d="M11.5,24.5L11.5,21.75Q11.5,21.6515086,11.480785000000001,21.55491Q11.46157,21.458311,11.423879,21.367317Q11.386188,21.276322,11.33147,21.19443Q11.276751,21.112537,11.207107,21.042893Q11.137463,20.973249,11.05557,20.91853Q10.973678,20.863812,10.882683,20.826121Q10.791689,20.788429999999998,10.69509,20.769215Q10.5984914,20.75,10.5,20.75Q10.4015086,20.75,10.30491,20.769215Q10.208311,20.788429999999998,10.117317,20.826121Q10.026322,20.863812,9.94443,20.91853Q9.862537,20.973249,9.792893,21.042893Q9.723249,21.112537,9.66853,21.19443Q9.613812,21.276322,9.576121,21.367317Q9.53843,21.458311,9.519214999999999,21.55491Q9.5,21.6515086,9.5,21.75L9.5,25.5Q9.5,25.598489999999998,9.519214999999999,25.69509Q9.53843,25.79169,9.576121,25.88268Q9.613812,25.97368,9.66853,26.05557Q9.723249,26.13746,9.792893,26.20711Q9.862537,26.27675,9.94443,26.33147Q10.026322,26.38619,10.117317,26.42388Q10.208311,26.461570000000002,10.30491,26.48078Q10.4015086,26.5,10.5,26.5L14.25,26.5Q14.34849,26.5,14.44509,26.48078Q14.54169,26.461570000000002,14.63268,26.42388Q14.72368,26.38619,14.80557,26.33147Q14.88746,26.27675,14.95711,26.20711Q15.02675,26.13746,15.08147,26.05557Q15.13619,25.97368,15.17388,25.88268Q15.21157,25.79169,15.23078,25.69509Q15.25,25.598489999999998,15.25,25.5Q15.25,25.401510000000002,15.23078,25.30491Q15.21157,25.20831,15.17388,25.11732Q15.13619,25.02632,15.08147,24.94443Q15.02675,24.86254,14.95711,24.79289Q14.88746,24.72325,14.80557,24.66853Q14.72368,24.61381,14.63268,24.57612Q14.54169,24.538429999999998,14.44509,24.51921Q14.34849,24.5,14.25,24.5L11.5,24.5Z" fill-rule="evenodd" fill="#FFFFFF" fill-opacity="1"/></g><g><path d="M11.5,11.5L14.25,11.5Q14.34849,11.5,14.44509,11.480785000000001Q14.54169,11.46157,14.63268,11.423879Q14.72368,11.386188,14.80557,11.33147Q14.88746,11.276751,14.95711,11.207107Q15.02675,11.137463,15.08147,11.05557Q15.13619,10.973678,15.17388,10.882683Q15.21157,10.791689,15.23078,10.69509Q15.25,10.5984914,15.25,10.5Q15.25,10.4015086,15.23078,10.30491Q15.21157,10.208311,15.17388,10.117317Q15.13619,10.026322,15.08147,9.94443Q15.02675,9.862537,14.95711,9.792893Q14.88746,9.723249,14.80557,9.66853Q14.72368,9.613812,14.63268,9.576121Q14.54169,9.53843,14.44509,9.519214999999999Q14.34849,9.5,14.25,9.5L10.5,9.5Q10.4015086,9.5,10.30491,9.519214999999999Q10.208311,9.53843,10.117317,9.576121Q10.026322,9.613812,9.94443,9.66853Q9.862537,9.723249,9.792893,9.792893Q9.723249,9.862537,9.66853,9.94443Q9.613812,10.026322,9.576121,10.117317Q9.53843,10.208311,9.519214999999999,10.30491Q9.5,10.4015086,9.5,10.5L9.5,14.25Q9.5,14.34849,9.519214999999999,14.44509Q9.53843,14.54169,9.576121,14.63268Q9.613812,14.72368,9.66853,14.80557Q9.723249,14.88746,9.792893,14.95711Q9.862537,15.02675,9.94443,15.08147Q10.026322,15.13619,10.117317,15.17388Q10.208311,15.21157,10.30491,15.23078Q10.4015086,15.25,10.5,15.25Q10.5984914,15.25,10.69509,15.23078Q10.791689,15.21157,10.882683,15.17388Q10.973678,15.13619,11.05557,15.08147Q11.137463,15.02675,11.207107,14.95711Q11.276751,14.88746,11.33147,14.80557Q11.386188,14.72368,11.423879,14.63268Q11.46157,14.54169,11.480785000000001,14.44509Q11.5,14.34849,11.5,14.25L11.5,11.5Z" fill-rule="evenodd" fill="#FFFFFF" fill-opacity="1"/></g></g></g></svg>