<svg xmlns="http://www.w3.org/2000/svg" xmlns:xlink="http://www.w3.org/1999/xlink" fill="none" version="1.1" width="236.15237426757812" height="152.029296875" viewBox="0 0 236.15237426757812 152.029296875"><defs><filter id="master_svg0_3_4507" filterUnits="objectBoundingBox" color-interpolation-filters="sRGB" x="-12.148626327514648" y="-12.148626327514648" width="28.214080095291138" height="242.22671127319336"><feFlood flood-opacity="0" result="BackgroundImageFix"/><feBlend mode="normal" in="SourceGraphic" in2="BackgroundImageFix" result="shape"/><feGaussianBlur stdDeviation="3.037156581878662" result="effect1_foregroundBlur"/></filter><linearGradient x1="0.9999999403953552" y1="0.398333340883255" x2="5.175671446977503e-9" y2="0.40833333134651184" id="master_svg1_3_3737"><stop offset="0%" stop-color="#208484" stop-opacity="1"/><stop offset="100%" stop-color="#33FEFE" stop-opacity="1"/></linearGradient><linearGradient x1="0.9999999403953552" y1="0.398333340883255" x2="5.175671446977503e-9" y2="0.40833333134651184" id="master_svg2_3_3748"><stop offset="0%" stop-color="#33FEFE" stop-opacity="1"/><stop offset="100%" stop-color="#0C4E4E" stop-opacity="1"/></linearGradient></defs><g><g transform="matrix(0,-1,1,0,-3.9883079528808594,22.07028579711914)" style="opacity:0.800000011920929;"><g><g filter="url(#master_svg0_3_4507)"><rect x="9.041983642033301" y="13.099777519702911" width="3.916827440261841" height="217.92945861816406" rx="0" fill="#3687FF" fill-opacity="0.20000000298023224"/></g><g style="opacity:0.6000000238418579;"><path d="M12.958813642033302,13.099778575C12.958813642033302,13.099778575,13.040993642033301,13.099778575,13.040993642033301,13.099778575C13.040993642033301,13.099778575,13.040993642033301,13.029296875,13.040993642033301,13.029296875C13.040993642033301,13.029296875,12.958813642033302,13.029296875,12.958813642033302,13.029296875C12.958813642033302,13.029296875,12.958813642033302,13.099778575,12.958813642033302,13.099778575C12.958813642033302,13.099778575,12.958813642033302,13.099778575,12.958813642033302,13.099778575ZM9.041983642033301,13.170259875C9.041983642033301,13.170259875,12.958813642033302,13.170259875,12.958813642033302,13.170259875C12.958813642033302,13.170259875,12.958813642033302,13.029296875,12.958813642033302,13.029296875C12.958813642033302,13.029296875,9.041983642033301,13.029296875,9.041983642033301,13.029296875C9.041983642033301,13.029296875,9.041983642033301,13.170259875,9.041983642033301,13.170259875C9.041983642033301,13.170259875,9.041983642033301,13.170259875,9.041983642033301,13.170259875ZM12.876633642033301,13.099778575C12.876633642033301,13.099778575,12.876633642033301,231.029296875,12.876633642033301,231.029296875C12.876633642033301,231.029296875,13.040993642033301,231.029296875,13.040993642033301,231.029296875C13.040993642033301,231.029296875,13.040993642033301,13.099778575,13.040993642033301,13.099778575C13.040993642033301,13.099778575,12.876633642033301,13.099778575,12.876633642033301,13.099778575C12.876633642033301,13.099778575,12.876633642033301,13.099778575,12.876633642033301,13.099778575Z" fill="#121929" fill-opacity="1"/></g><g><rect x="9.04098892211914" y="63.94987869262695" width="3.916827440261841" height="167.07923889160156" rx="0" fill="#29F1FA" fill-opacity="1"/></g><g><rect x="9.04098892211914" y="132.96082305908203" width="3.916827440261841" height="56.66165542602539" rx="0" fill="#29F1FA" fill-opacity="1"/></g><g><rect x="9.04098892211914" y="202.69847106933594" width="3.916827440261841" height="28.330827713012695" rx="0" fill="url(#master_svg1_3_3737)" fill-opacity="0.6000000238418579"/></g><g><rect x="9.04098892211914" y="189.62249755859375" width="3.916827440261841" height="13.075765609741211" rx="0" fill="#28F1FA" fill-opacity="0.30000001192092896"/></g><g><rect x="9.04098892211914" y="110.44168090820312" width="3.916827440261841" height="22.519378662109375" rx="0" fill="url(#master_svg2_3_3748)" fill-opacity="0.4000000059604645"/></g></g></g><g transform="matrix(1,0,0,-1,0,302.05859375)"><g><g><ellipse cx="222.23727416992188" cy="153.83282470703125" rx="1.5" ry="1.5" fill="#28F1FA" fill-opacity="1"/></g><g><ellipse cx="13.237289428710938" cy="153.83282470703125" rx="1.5" ry="1.5" fill="#28F1FA" fill-opacity="1"/></g><g transform="matrix(1,0,0,-1,0,306.0587158203125)"><line x1="13.041000366210938" y1="152.52935791015625" x2="222.04100036621094" y2="152.52935791015625" fill-opacity="0" stroke-opacity="1" stroke="#28F1FA" fill="none" stroke-width="1"/></g></g><g transform="matrix(1,0,0,-1,0,302.05859375)" style="opacity:0.4000000059604645;"><g transform="matrix(1,0,0,-1,0,302.05859375)"><line x1="14.04098892211914" y1="150.529296875" x2="225.04098892211914" y2="150.529296875" fill-opacity="0" stroke-opacity="1" stroke="#28F1FA" fill="none" stroke-width="1"/></g></g></g><g transform="matrix(1,0,0,-1,0,34.05859375)"><g><g><ellipse cx="224.23730850219727" cy="18.83287525177002" rx="1.5" ry="1.5" fill="#28F1FA" fill-opacity="1"/></g><g><ellipse cx="50.237308502197266" cy="18.83287525177002" rx="1.5" ry="1.5" fill="#28F1FA" fill-opacity="1"/></g><g transform="matrix(1,0,0,-1,0,36.66575050354004)"><line x1="50.737308502197266" y1="17.83287525177002" x2="223.73726272583008" y2="17.83287525177002" fill-opacity="0" stroke-opacity="1" stroke="#28F1FA" fill="none" stroke-width="1"/></g></g><g transform="matrix(-1,0,0,-1,450.0819778442383,34.05859375)" style="opacity:0.4000000059604645;"><g><line x1="225.04098892211914" y1="16.529296875" x2="437.04098892211914" y2="16.529296875" fill-opacity="0" stroke-opacity="1" stroke="#28F1FA" fill="none" stroke-width="1"/></g></g></g><g transform="matrix(0,1,-1,0,29.07028579711914,4.988307952880859)"><path d="M14.131728922119141,19.474456875C14.131728922119141,19.474456875,13.85784892211914,19.897436875,13.85784892211914,19.897436875C13.85784892211914,19.897436875,13.976318922119141,20.029296875,13.976318922119141,20.029296875C13.976318922119141,20.029296875,14.131728922119141,20.029296875,14.131728922119141,20.029296875C14.131728922119141,20.029296875,14.131728922119141,19.474456875,14.131728922119141,19.474456875C14.131728922119141,19.474456875,14.131728922119141,19.474456875,14.131728922119141,19.474456875ZM143.94998892211913,19.474456875C143.94998892211913,19.474456875,143.94998892211913,20.029296875,143.94998892211913,20.029296875C143.94998892211913,20.029296875,144.10598892211914,20.029296875,144.10598892211914,20.029296875C144.10598892211914,20.029296875,144.22498892211914,19.897436875,144.22498892211914,19.897436875C144.22498892211914,19.897436875,143.94998892211913,19.474456875,143.94998892211913,19.474456875C143.94998892211913,19.474456875,143.94998892211913,19.474456875,143.94998892211913,19.474456875ZM21.11581892211914,19.474456875C21.11581892211914,19.474456875,21.11581892211914,20.029296875,21.11581892211914,20.029296875C21.11581892211914,20.029296875,21.11581892211914,19.474456875,21.11581892211914,19.474456875C21.11581892211914,19.474456875,21.11581892211914,19.474456875,21.11581892211914,19.474456875ZM14.131728922119141,20.029296875C14.131728922119141,20.029296875,21.11581892211914,20.029296875,21.11581892211914,20.029296875C21.11581892211914,20.029296875,21.11581892211914,18.919616875,21.11581892211914,18.919616875C21.11581892211914,18.919616875,14.131728922119141,18.919616875,14.131728922119141,18.919616875C14.131728922119141,18.919616875,14.131728922119141,20.029296875,14.131728922119141,20.029296875C14.131728922119141,20.029296875,14.131728922119141,20.029296875,14.131728922119141,20.029296875ZM21.11581892211914,20.029296875C21.11581892211914,20.029296875,143.94998892211913,20.029296875,143.94998892211913,20.029296875C143.94998892211913,20.029296875,143.94998892211913,18.919616875,143.94998892211913,18.919616875C143.94998892211913,18.919616875,21.11581892211914,18.919616875,21.11581892211914,18.919616875C21.11581892211914,18.919616875,21.11581892211914,20.029296875,21.11581892211914,20.029296875C21.11581892211914,20.029296875,21.11581892211914,20.029296875,21.11581892211914,20.029296875ZM14.40559892211914,19.051476875C14.40559892211914,19.051476875,12.58874292211914,17.029296875,12.58874292211914,17.029296875C12.58874292211914,17.029296875,12.04098892211914,17.875259875,12.04098892211914,17.875259875C12.04098892211914,17.875259875,13.85784892211914,19.897436875,13.85784892211914,19.897436875C13.85784892211914,19.897436875,14.40559892211914,19.051476875,14.40559892211914,19.051476875C14.40559892211914,19.051476875,14.40559892211914,19.051476875,14.40559892211914,19.051476875ZM144.22498892211914,19.897436875C144.22498892211914,19.897436875,146.04098892211914,17.875257875,146.04098892211914,17.875257875C146.04098892211914,17.875257875,145.49298892211914,17.029296875,145.49298892211914,17.029296875C145.49298892211914,17.029296875,143.67598892211913,19.051476875,143.67598892211913,19.051476875C143.67598892211913,19.051476875,144.22498892211914,19.897436875,144.22498892211914,19.897436875C144.22498892211914,19.897436875,144.22498892211914,19.897436875,144.22498892211914,19.897436875Z" fill="#28F1FA" fill-opacity="1"/></g><g transform="matrix(0,1,1,0,209.01169204711914,-209.01169204711914)"><path d="M228.15488892211914,19.526156874999998C228.15488892211914,19.526156874999998,227.85718892211915,19.883636875,227.85718892211915,19.883636875C227.85718892211915,19.883636875,227.98084892211915,20.029296875,227.98084892211915,20.029296875C227.98084892211915,20.029296875,228.15488892211914,20.029296875,228.15488892211914,20.029296875C228.15488892211914,20.029296875,228.15488892211914,19.526156874999998,228.15488892211914,19.526156874999998C228.15488892211914,19.526156874999998,228.15488892211914,19.526156874999998,228.15488892211914,19.526156874999998ZM357.9269889221191,19.526156874999998C357.9269889221191,19.526156874999998,357.9269889221191,20.029296875,357.9269889221191,20.029296875C357.9269889221191,20.029296875,358.10098892211914,20.029296875,358.10098892211914,20.029296875C358.10098892211914,20.029296875,358.22398892211913,19.883636875,358.22398892211913,19.883636875C358.22398892211913,19.883636875,357.9269889221191,19.526156874999998,357.9269889221191,19.526156874999998C357.9269889221191,19.526156874999998,357.9269889221191,19.526156874999998,357.9269889221191,19.526156874999998ZM235.13644892211914,19.526156874999998C235.13644892211914,19.526156874999998,235.13644892211914,20.029296875,235.13644892211914,20.029296875C235.13644892211914,20.029296875,235.13644892211914,19.526156874999998,235.13644892211914,19.526156874999998C235.13644892211914,19.526156874999998,235.13644892211914,19.526156874999998,235.13644892211914,19.526156874999998ZM228.15488892211914,20.029296875C228.15488892211914,20.029296875,235.13644892211914,20.029296875,235.13644892211914,20.029296875C235.13644892211914,20.029296875,235.13644892211914,19.023016875,235.13644892211914,19.023016875C235.13644892211914,19.023016875,228.15488892211914,19.023016875,228.15488892211914,19.023016875C228.15488892211914,19.023016875,228.15488892211914,20.029296875,228.15488892211914,20.029296875C228.15488892211914,20.029296875,228.15488892211914,20.029296875,228.15488892211914,20.029296875ZM235.13644892211914,20.029296875C235.13644892211914,20.029296875,357.9269889221191,20.029296875,357.9269889221191,20.029296875C357.9269889221191,20.029296875,357.9269889221191,19.023016875,357.9269889221191,19.023016875C357.9269889221191,19.023016875,235.13644892211914,19.023016875,235.13644892211914,19.023016875C235.13644892211914,19.023016875,235.13644892211914,20.029296875,235.13644892211914,20.029296875C235.13644892211914,20.029296875,235.13644892211914,20.029296875,235.13644892211914,20.029296875ZM228.45256892211913,19.168666875C228.45256892211913,19.168666875,226.63636592211915,17.029296875,226.63636592211915,17.029296875C226.63636592211915,17.029296875,226.04098892211914,17.744266875,226.04098892211914,17.744266875C226.04098892211914,17.744266875,227.85718892211915,19.883636875,227.85718892211915,19.883636875C227.85718892211915,19.883636875,228.45256892211913,19.168666875,228.45256892211913,19.168666875C228.45256892211913,19.168666875,228.45256892211913,19.168666875,228.45256892211913,19.168666875ZM358.22398892211913,19.883636875C358.22398892211913,19.883636875,360.04098892211914,17.744265875,360.04098892211914,17.744265875C360.04098892211914,17.744265875,359.44498892211914,17.029296875,359.44498892211914,17.029296875C359.44498892211914,17.029296875,357.6289889221191,19.168666875,357.6289889221191,19.168666875C357.6289889221191,19.168666875,358.22398892211913,19.883636875,358.22398892211913,19.883636875C358.22398892211913,19.883636875,358.22398892211913,19.883636875,358.22398892211913,19.883636875Z" fill="#28F1FA" fill-opacity="1"/></g></g></svg>